<mxfile host="Electron" modified="2023-09-10T19:37:54.356Z" agent="Mozilla/5.0 (Windows NT 10.0; Win64; x64) AppleWebKit/537.36 (KHTML, like Gecko) draw.io/21.6.8 Chrome/114.0.5735.289 Electron/25.5.0 Safari/537.36" etag="BZHx3UNg1LAHH20RQ06b" version="21.6.8" type="device">
  <diagram name="Página-1" id="AQ2XLBic3hwLw7eojQ7M">
    <mxGraphModel dx="1434" dy="844" grid="1" gridSize="10" guides="1" tooltips="1" connect="1" arrows="1" fold="1" page="1" pageScale="1" pageWidth="827" pageHeight="1169" math="0" shadow="0">
      <root>
        <mxCell id="0" />
        <mxCell id="1" parent="0" />
        <mxCell id="Hf4CgdQgBUka3phVS4e2-1" value="Sistema" style="verticalAlign=top;align=left;spacingTop=8;spacingLeft=2;spacingRight=12;shape=cube;size=10;direction=south;fontStyle=4;html=1;whiteSpace=wrap;" parent="1" vertex="1">
          <mxGeometry x="210" y="20" width="520" height="520" as="geometry" />
        </mxCell>
        <mxCell id="Hf4CgdQgBUka3phVS4e2-2" value="Usuario" style="shape=umlActor;verticalLabelPosition=bottom;verticalAlign=top;html=1;" parent="1" vertex="1">
          <mxGeometry x="100" y="210" width="50" height="90" as="geometry" />
        </mxCell>
        <mxCell id="Hf4CgdQgBUka3phVS4e2-4" value="Presiona botón registrar" style="ellipse;whiteSpace=wrap;html=1;" parent="1" vertex="1">
          <mxGeometry x="410" y="110" width="120" height="80" as="geometry" />
        </mxCell>
        <mxCell id="Hf4CgdQgBUka3phVS4e2-7" value="Ingresa datos solicitados" style="ellipse;whiteSpace=wrap;html=1;" parent="1" vertex="1">
          <mxGeometry x="300" y="260" width="120" height="80" as="geometry" />
        </mxCell>
        <mxCell id="Hf4CgdQgBUka3phVS4e2-9" value="Presiona crear cuenta" style="ellipse;whiteSpace=wrap;html=1;" parent="1" vertex="1">
          <mxGeometry x="340" y="420" width="120" height="80" as="geometry" />
        </mxCell>
        <mxCell id="Hf4CgdQgBUka3phVS4e2-13" value="Registro de cuenta de usuario" style="rounded=0;whiteSpace=wrap;html=1;" parent="1" vertex="1">
          <mxGeometry x="380" y="40" width="180" height="20" as="geometry" />
        </mxCell>
        <mxCell id="Hf4CgdQgBUka3phVS4e2-21" value="Almacenar registros" style="ellipse;whiteSpace=wrap;html=1;" parent="1" vertex="1">
          <mxGeometry x="550" y="420" width="130" height="80" as="geometry" />
        </mxCell>
        <mxCell id="LW8N3Zg4KhBqL9BjO1fi-3" value="Extends" style="endArrow=block;endSize=16;endFill=0;html=1;rounded=0;entryX=1;entryY=0.5;entryDx=0;entryDy=0;exitX=0;exitY=0.5;exitDx=0;exitDy=0;" parent="1" source="Hf4CgdQgBUka3phVS4e2-21" target="Hf4CgdQgBUka3phVS4e2-9" edge="1">
          <mxGeometry width="160" relative="1" as="geometry">
            <mxPoint x="550" y="400" as="sourcePoint" />
            <mxPoint x="510" y="320" as="targetPoint" />
          </mxGeometry>
        </mxCell>
        <mxCell id="LW8N3Zg4KhBqL9BjO1fi-10" value="Include" style="endArrow=open;endSize=12;dashed=1;html=1;rounded=0;exitX=0.5;exitY=1;exitDx=0;exitDy=0;entryX=0.5;entryY=0;entryDx=0;entryDy=0;" parent="1" source="Hf4CgdQgBUka3phVS4e2-7" target="Hf4CgdQgBUka3phVS4e2-9" edge="1">
          <mxGeometry width="160" relative="1" as="geometry">
            <mxPoint x="460" y="180" as="sourcePoint" />
            <mxPoint x="550" y="180" as="targetPoint" />
          </mxGeometry>
        </mxCell>
        <mxCell id="LW8N3Zg4KhBqL9BjO1fi-11" value="Include" style="endArrow=open;endSize=12;dashed=1;html=1;rounded=0;exitX=0.5;exitY=1;exitDx=0;exitDy=0;entryX=0.5;entryY=0;entryDx=0;entryDy=0;" parent="1" source="Hf4CgdQgBUka3phVS4e2-4" target="Hf4CgdQgBUka3phVS4e2-7" edge="1">
          <mxGeometry width="160" relative="1" as="geometry">
            <mxPoint x="450" y="254.5" as="sourcePoint" />
            <mxPoint x="540" y="254.5" as="targetPoint" />
          </mxGeometry>
        </mxCell>
        <mxCell id="LW8N3Zg4KhBqL9BjO1fi-16" value="" style="endArrow=none;html=1;rounded=0;exitX=0.5;exitY=0.5;exitDx=0;exitDy=0;exitPerimeter=0;entryX=0;entryY=0.5;entryDx=0;entryDy=0;" parent="1" source="Hf4CgdQgBUka3phVS4e2-2" target="Hf4CgdQgBUka3phVS4e2-4" edge="1">
          <mxGeometry width="50" height="50" relative="1" as="geometry">
            <mxPoint x="170" y="250" as="sourcePoint" />
            <mxPoint x="220" y="200" as="targetPoint" />
          </mxGeometry>
        </mxCell>
      </root>
    </mxGraphModel>
  </diagram>
</mxfile>
